<?xml version="1.0" encoding="UTF-8"?>
<svg id="Calque_1" data-name="Calque 1" xmlns="http://www.w3.org/2000/svg" viewBox="0 0 879.33 1051.27">
  <defs>
    <style>
      .cls-1 {
        fill: #e2e8f0;
      }
    </style>
  </defs>
  <path class="cls-1" d="M24.74,1051.27l205.09-148.4V279.27s-171.74,115.05-171.74,115.05c-20.19,10.93-33.03,30.12-33.35,63.36v593.59Z"/>
  <path class="cls-1" d="M145.23,23.81C84.55,55.29,0,137.48,0,137.48l525.3,344.88-1.79-204.61c-1.19-37.78-12.37-52.41-39.51-71.6,0,0-185.05-140.93-283.61-184.91-12.79-5.71-44.58-2.92-55.16,2.57Z"/>
  <path class="cls-1" d="M866.32,0l-205.09,148.4v623.6s171.74-115.05,171.74-115.05c20.19-10.93,33.03-30.12,33.35-63.36V0Z"/>
  <path class="cls-1" d="M731.48,1026.88c61.4-30.05,147.86-110.24,147.86-110.24l-517.07-357.09-3.01,204.6c.31,37.8,11.13,52.68,37.82,72.51,0,0,181.7,145.22,279.2,191.51,12.65,6,44.5,3.96,55.21-1.28Z"/>
</svg>