<?xml version="1.0" encoding="UTF-8"?>
<svg id="Calque_1" data-name="Calque 1" xmlns="http://www.w3.org/2000/svg" viewBox="0 0 1080 1080">
  <defs>
    <style>
      .cls-1 {
        fill: #0f172a;
      }
    </style>
  </defs>
  <path class="cls-1" d="M125.07,1065.64l205.09-148.4V293.63s-171.74,115.05-171.74,115.05c-20.19,10.93-33.03,30.12-33.35,63.36v593.59Z"/>
  <path class="cls-1" d="M245.57,38.17c-60.68,31.49-145.23,113.67-145.23,113.67l525.3,344.88-1.79-204.61c-1.19-37.78-12.37-52.41-39.51-71.6,0,0-185.05-140.93-283.61-184.91-12.79-5.71-44.58-2.92-55.16,2.57Z"/>
  <path class="cls-1" d="M966.65,14.36l-205.09,148.4v623.6s171.74-115.05,171.74-115.05c20.19-10.93,33.03-30.12,33.35-63.36V14.36Z"/>
  <path class="cls-1" d="M831.81,1041.24c61.4-30.05,147.86-110.24,147.86-110.24l-517.07-357.09-3.01,204.6c.31,37.8,11.13,52.68,37.82,72.51,0,0,181.7,145.22,279.2,191.51,12.65,6,44.5,3.96,55.21-1.28Z"/>
</svg>